<svg width="160" height="160" viewBox="0 0 160 160" fill="none" xmlns="http://www.w3.org/2000/svg">
<path d="M103.591 93.9348L94.5669 88.8183V88.8676L94.4863 88.8147L54.0553 112.098V111.992L49.9318 109.613L90.2328 86.1978L90.2247 86.1951V86.1736L81.1855 81.049L81.1685 80.9791V34.2047L80.9364 34.0703L40.6031 57.5691V57.4768L40.5672 57.4544L36.1758 54.8034L36.3479 130.039L40.6031 132.36L40.682 104.425L49.7355 109.654L49.7992 137.787L54.0553 140.107V112.146L63.177 117.413L63.228 117.382L63.2908 145.534L67.4627 147.852V119.735L63.3087 117.336L103.591 93.9348Z" fill="white"/>
<path d="M88.3312 9.41135L79.1853 4L14 41.9036L23.0455 47.0363L88.3312 9.41135Z" fill="white"/>
<path d="M92.2654 11.7368L27.0801 49.6405L36.1265 54.7731L101.409 17.1482L92.2654 11.7368Z" fill="white"/>
<path d="M90.0491 39.238L114.903 24.9129L105.758 19.5024L80.9023 33.9539L90.0491 39.238Z" fill="white"/>
<path d="M103.518 47.0237L128.383 32.6941L119.238 27.2827L94.375 41.7396L103.518 47.0237Z" fill="white"/>
<path d="M116.865 54.7371L141.69 40.4299L132.546 35.0186L107.721 49.4521L116.865 54.7371Z" fill="white"/>
<path d="M23.0372 122.086L27.0361 124.403V49.6196L22.875 46.9507L23.0372 122.086Z" fill="white"/>
<path d="M121.237 57.3326V57.2797L116.928 54.7891V101.497L121.158 104.053L80.986 127.479L80.7539 127.345V155.863L145.911 118.221L146 43.0801L121.237 57.3326Z" fill="white"/>
<path d="M107.896 96.5165V96.5291L107.858 96.5049L67.4375 119.802L76.5807 125.085L116.912 101.633L107.896 96.5165Z" fill="white"/>
<path d="M103.592 93.8604L107.972 96.5051L107.98 96.5007L108.01 96.5168L107.902 49.6429L103.592 47.1523V93.8604Z" fill="white"/>
<path d="M94.4599 88.7405L94.5002 88.7208L94.5406 88.7441L94.4375 41.8631L90.2109 39.4209V86.1021L90.2378 86.1173L90.219 86.1272L94.4599 88.7405Z" fill="#FCFCFC"/>
</svg>
