<svg width="400" height="100" viewBox="0 0 400 100" fill="none" xmlns="http://www.w3.org/2000/svg">
<path d="M69.5462 57.7367L64.5557 54.9071V54.9344L64.511 54.9051L42.1516 67.7817V67.7227L39.8711 66.4073L62.1588 53.4579L62.1543 53.4564V53.4445L57.1554 50.6105L57.1459 50.5718V24.7042L57.0176 24.6299L34.7121 37.6254V37.5743L34.6923 37.5619L32.2637 36.0959L32.3588 77.7033L34.7121 78.9869L34.7557 63.5381L39.7626 66.4296L39.7978 81.988L42.1516 83.2712V67.8079L47.1961 70.7208L47.2244 70.7039L47.259 86.2728L49.5662 87.5545V72.005L47.269 70.6782L69.5462 57.7367Z" fill="white"/>
<path d="M61.1073 10.9926L56.0494 8L20 28.9618L25.0024 31.8003L61.1073 10.9926Z" fill="white"/>
<path d="M63.2837 12.2788L27.2344 33.2406L32.2373 36.0791L68.3407 15.2714L63.2837 12.2788Z" fill="white"/>
<path d="M62.0565 27.4881L75.8014 19.5659L70.7439 16.5737L56.998 24.5658L62.0565 27.4881Z" fill="white"/>
<path d="M69.5057 31.7938L83.2565 23.8691L78.1991 20.8765L64.4492 28.8715L69.5057 31.7938Z" fill="white"/>
<path d="M76.887 36.0592L90.6161 28.1469L85.5591 25.1543L71.8301 33.1365L76.887 36.0592Z" fill="white"/>
<path d="M24.9979 73.3053L27.2094 74.587V33.2294L24.9082 31.7534L24.9979 73.3053Z" fill="white"/>
<path d="M79.3043 37.4948V37.4656L76.9213 36.0882V61.9192L79.2606 63.3327L57.0444 76.288L56.916 76.2137V91.9847L92.95 71.1682L92.9991 29.6128L79.3043 37.4948Z" fill="white"/>
<path d="M71.9276 59.1646V59.1716L71.9063 59.1582L49.5527 72.0422L54.6092 74.9639L76.9137 61.9942L71.9276 59.1646Z" fill="white"/>
<path d="M69.5469 57.6957L71.969 59.1583L71.9735 59.1558L71.9903 59.1647L71.9304 33.2421L69.5469 31.8647V57.6957Z" fill="white"/>
<path d="M64.4963 54.8641L64.5186 54.8531L64.5409 54.866L64.4839 28.9395L62.1465 27.5889V53.4049L62.1614 53.4133L62.1509 53.4188L64.4963 54.8641Z" fill="#FCFCFC"/>
<path d="M121.964 68L113.175 36.651H121.494L126.993 60.997H125.724L132.774 36.651H138.649L145.84 61.326H144.43L149.976 36.651H158.295L149.506 68H141.986L135.077 45.44H136.44L129.484 68H121.964ZM162.796 68V36.651H178.071C181.612 36.651 184.385 37.4813 186.39 39.142C188.395 40.7713 189.398 43.2623 189.398 46.615C189.398 47.9937 189.116 49.3567 188.552 50.704C187.988 52.02 187.158 53.1637 186.061 54.135C184.964 55.075 183.586 55.686 181.925 55.968L181.455 53.383L190.996 68H181.314L173.465 54.323L176.849 57.19H170.41V68H162.796ZM170.41 51.597H176.802C178.149 51.597 179.215 51.2367 179.998 50.516C180.781 49.7953 181.173 48.6047 181.173 46.944C181.173 45.5027 180.813 44.406 180.092 43.654C179.403 42.902 178.416 42.526 177.131 42.526H170.41V51.597ZM193.392 68L205.236 36.651H213.555L224.647 68H216.845L206.834 38.437L210.547 38.108L200.583 68H193.392ZM200.066 61.232L201.617 55.639H215.858L216.563 61.232H200.066ZM236.228 57.707V68H228.614V36.651H242.714C246.38 36.651 249.263 37.4813 251.362 39.142C253.462 40.8027 254.511 43.372 254.511 46.85C254.511 50.328 253.462 53.007 251.362 54.887C249.263 56.767 246.38 57.707 242.714 57.707H236.228ZM236.228 51.832H241.774C242.589 51.832 243.278 51.7223 243.842 51.503C244.438 51.2837 244.908 50.9703 245.252 50.563C245.597 50.1557 245.848 49.6857 246.004 49.153C246.192 48.589 246.286 47.9937 246.286 47.367C246.286 46.615 246.192 45.957 246.004 45.393C245.848 44.829 245.597 44.3277 245.252 43.889C244.908 43.4503 244.438 43.1213 243.842 42.902C243.278 42.6827 242.589 42.573 241.774 42.573H236.228V51.832ZM267.439 57.707V68H259.825V36.651H273.925C277.591 36.651 280.474 37.4813 282.573 39.142C284.673 40.8027 285.722 43.372 285.722 46.85C285.722 50.328 284.673 53.007 282.573 54.887C280.474 56.767 277.591 57.707 273.925 57.707H267.439ZM267.439 51.832H272.985C273.8 51.832 274.489 51.7223 275.053 51.503C275.649 51.2837 276.119 50.9703 276.463 50.563C276.808 50.1557 277.059 49.6857 277.215 49.153C277.403 48.589 277.497 47.9937 277.497 47.367C277.497 46.615 277.403 45.957 277.215 45.393C277.059 44.829 276.808 44.3277 276.463 43.889C276.119 43.4503 275.649 43.1213 275.053 42.902C274.489 42.6827 273.8 42.573 272.985 42.573H267.439V51.832ZM291.036 68V36.651H298.65V62.031H312.28V68H291.036ZM317.107 68V36.651H338.586V42.526H324.721V49.341H336.753V55.263H324.721V62.125H338.586V68H317.107ZM351.547 68V42.526H342.758V36.651H368.091V42.526H359.161V68H351.547Z" fill="white"/>
</svg>
